Coordinates
version=1
nRows=12
nColumns=42
inDegrees=yes

Units are S.I. units (second, meters, Newtons, ...)
If the header above contains a line with 'inDegrees', this indicates whether rotational values are in degrees (yes) or radians (no).

endheader
time	pelvis_tilt	pelvis_list	pelvis_rotation	pelvis_tx	pelvis_ty	pelvis_tz	hip_flexion_r	hip_adduction_r	hip_rotation_r	knee_angle_r	knee_adduction_r	knee_angle_r_beta	ankle_angle_r	subtalar_angle_r	mtp_angle_r	hip_flexion_l	hip_adduction_l	hip_rotation_l	knee_angle_l	knee_adduction_l	knee_angle_l_beta	ankle_angle_l	subtalar_angle_l	mtp_angle_l	lumbar_extension	lumbar_bending	lumbar_rotation	arm_flex_r	arm_add_r	arm_rot_r	elbow_flex_r	pro_sup_r	wrist_flex_r	wrist_dev_r	arm_flex_l	arm_add_l	arm_rot_l	elbow_flex_l	pro_sup_l	wrist_flex_l	wrist_dev_l
      2.72000000	     16.25034954	     -2.63092216	     -1.00537563	     -0.17810941	      0.92422613	      0.05022598	    -13.67613758	      1.23129585	    -37.33238243	     29.15434693	     -7.40096313	      0.50883935	     25.01276232	     38.62834607	     -7.50105918	     20.41919019	     -1.70723354	      1.19646965	     40.10968699	     -5.61735838	      0.70004610	     11.60600661	     -5.45590357	     -7.50105918	    -36.04894776	     -1.80575008	     -0.93380214	     16.73804042	    -24.94144460	      8.06100819	     73.40423360	     90.00000001	      0.00000000	      0.00000000	     -2.43112381	     -4.50030722	    -19.23555557	     38.32866977	     90.00000001	      0.00000000	      0.00000000
      2.73000000	     16.44116676	     -2.86118982	     -1.17331709	     -0.16939888	      0.92328694	      0.05002276	    -14.60635075	      1.30873498	    -37.19516861	     29.11411324	     -7.20146296	      0.50813713	     25.34659513	     38.66886334	     -7.50102697	     20.23553015	     -2.10245655	      0.14066441	     38.16184447	     -6.10966328	      0.66604983	     11.54698366	     -3.94914615	     -7.50102697	    -36.20562784	     -1.65208782	     -0.76886494	     17.15959681	    -25.66768278	      8.23184735	     75.20504426	     90.00000001	      0.00000000	      0.00000000	     -3.17390707	     -4.22300102	    -18.90050859	     37.81909061	     90.00000001	      0.00000000	      0.00000000
      2.74000000	     16.52912618	     -3.14462992	     -1.33686389	     -0.16067150	      0.92220082	      0.04983416	    -15.35688163	      1.49970342	    -37.03981277	     29.09230900	     -7.18545432	      0.50775658	     25.57497451	     38.68390078	     -7.50099716	     20.17625679	     -2.58404972	     -0.89503023	     36.62500326	     -6.51619291	      0.63922690	     11.78482440	     -2.53918041	     -7.50099716	    -36.23947732	     -1.45346532	     -0.61703441	     17.68668224	    -26.15403998	      8.24174227	     76.51021277	     90.00000001	      0.00000000	      0.00000000	     -3.93321418	     -3.99016876	    -18.55548671	     37.38428105	     90.00000001	      0.00000000	      0.00000000
      2.75000000	     16.41203510	     -3.47483000	     -1.50536351	     -0.15206797	      0.92080231	      0.04970834	    -15.76006779	      1.76739584	    -36.98143205	     29.20458793	     -7.38811905	      0.50971622	     25.64713145	     38.72793911	     -7.50099219	     20.37793916	     -3.13523899	     -1.47224437	     35.60434551	     -6.58805070	      0.62141306	     11.95181787	     -2.40597479	     -7.50099219	    -36.05658116	     -1.23301188	     -0.48964354	     18.39922799	    -26.36345443	      8.07140698	     77.05396442	     90.00000001	      0.00000000	      0.00000000	     -4.69300136	     -3.75753651	    -18.49428659	     37.07040885	     90.00000001	      0.00000000	      0.00000000
      2.76000000	     16.69032993	     -3.65317396	     -1.67681533	     -0.14312619	      0.92002675	      0.04928086	    -16.79491761	      1.81138544	    -36.61202238	     29.08344174	     -7.25825471	      0.50760182	     25.92293925	     38.74138443	     -7.50096955	     20.00339165	     -3.48370018	     -2.83923934	     34.59218478	     -7.10609102	      0.60374752	     12.21248078	     -0.75812789	     -7.50096955	    -36.29023824	     -1.12024297	     -0.35284046	     18.71493633	    -26.85375380	      8.05612602	     78.65697918	     90.00000001	      0.00000000	      0.00000000	     -5.35435074	     -3.65958191	    -18.11467725	     36.67429216	     90.00000001	      0.00000000	      0.00000000
      2.77000000	     16.73745314	     -3.98028449	     -1.85257756	     -0.13420899	      0.91882751	      0.04908232	    -17.45052231	      2.07113013	    -36.29299969	     29.09193277	     -7.36285277	      0.50775001	     25.99644824	     38.73957103	     -7.50092093	     20.04664045	     -4.11802845	     -4.51269883	     34.22550819	     -7.65478651	      0.59734781	     13.24408356	      1.95257963	     -7.50092093	    -36.28082045	     -0.91883682	     -0.06875885	     18.97056043	    -27.24282176	      7.79379358	     79.82736558	     90.00000001	      0.00000000	      0.00000000	     -6.02527089	     -3.63941658	    -17.38537173	     36.44685713	     90.00000001	      0.00000000	      0.00000000
      2.78000000	     16.61875241	     -4.17759277	     -1.94648462	     -0.12533504	      0.91758104	      0.04857543	    -17.88499098	      2.12328320	    -36.26085255	     29.22491471	     -7.45415032	      0.51007099	     26.00892331	     38.75504804	     -7.50091901	     20.06052492	     -4.42712812	     -4.77150398	     33.95083860	     -7.60373478	      0.59255392	     13.31336205	      1.89766059	     -7.50091901	    -36.07974711	     -0.79835777	     -0.01474546	     19.39461449	    -27.40317446	      7.61980945	     80.03081610	     90.00000001	      0.00000000	      0.00000000	     -6.66887484	     -3.58608495	    -17.40623107	     36.20808658	     90.00000001	      0.00000000	      0.00000000
      2.79000000	     16.84757134	     -4.37831581	     -2.11959652	     -0.11627034	      0.91686504	      0.04812787	    -18.82821354	      2.21041921	    -35.68531733	     29.12229584	     -7.37836203	      0.50827995	     26.06551665	     38.74840388	     -7.50087567	     19.64283295	     -4.82942950	     -6.22392511	     33.79211527	     -8.03155102	      0.58978367	     13.90413268	      3.35148966	     -7.50087567	    -36.28253943	     -0.70924825	      0.13919941	     19.63216428	    -27.48316578	      7.22999897	     81.28123775	     90.00000001	      0.00000000	      0.00000000	     -7.16703211	     -3.60825510	    -16.92755148	     36.10575966	     90.00000001	      0.00000000	      0.00000000
      2.80000000	     16.85139726	     -4.53703069	     -2.26693456	     -0.10728470	      0.91593072	      0.04753035	    -19.39763908	      2.17554585	    -35.53071642	     29.25164774	     -7.46448734	      0.51053756	     26.05544061	     38.77311581	     -7.50086963	     19.36057534	     -5.08296021	     -6.67264833	     33.82902816	     -8.03479321	      0.59042792	     14.06977213	      3.29744505	     -7.50086963	    -36.24128704	     -0.65451472	      0.14560569	     20.02717866	    -27.47933899	      7.05512763	     81.57292390	     90.00000001	      0.00000000	      0.00000000	     -7.62912447	     -3.63576399	    -16.91089689	     35.91555670	     90.00000001	      0.00000000	      0.00000000
      2.81000000	     16.73241800	     -4.63255139	     -2.33355527	     -0.09814396	      0.91490009	      0.04676107	    -19.86222802	      2.11228899	    -35.42732743	     29.33780057	     -7.54484133	      0.51204122	     26.03792266	     38.78524406	     -7.50086784	     19.13620514	     -5.18045886	     -6.84734710	     33.91803918	     -8.00327272	      0.59198146	     14.10890008	      3.28390577	     -7.50086784	    -36.03842831	     -0.61934236	      0.21662000	     20.17808283	    -27.55912388	      6.93019257	     81.71564733	     90.00000001	      0.00000000	      0.00000000	     -8.07141386	     -3.71778917	    -16.94874601	     35.75086056	     90.00000001	      0.00000000	      0.00000000
      2.82000000	     16.94945185	     -4.71968064	     -2.43606817	     -0.08880694	      0.91438057	      0.04592157	    -20.84846566	      2.00251140	    -34.93619308	     29.19000061	     -7.33418482	      0.50946162	     25.89538784	     38.79192422	     -7.50085553	     18.54793477	     -5.33365616	     -7.85194387	     34.23205659	     -8.26040279	      0.59746210	     14.45516160	      3.40654236	     -7.50085553	    -36.22964057	     -0.62798689	      0.24764700	     20.23263714	    -27.47848439	      6.45789313	     82.43597105	     90.00000001	      0.00000000	      0.00000000	     -8.35417781	     -3.81498592	    -16.87539797	     35.63490482	     90.00000001	      0.00000000	      0.00000000
      2.83000000	     16.96962609	     -4.80748492	     -2.51392582	     -0.07946072	      0.91368255	      0.04499326	    -21.54521873	      1.90319957	    -34.61489894	     29.14262458	     -7.26263131	      0.50863475	     25.66777901	     38.78463215	     -7.50084060	     18.11517455	     -5.45953200	     -8.46305029	     34.55182696	     -8.35589730	      0.60304314	     14.62301809	      3.90035519	     -7.50084060	    -36.21319292	     -0.60440662	      0.35218522	     20.09684582	    -27.42202136	      5.94538525	     82.92853490	     90.00000001	      0.00000000	      0.00000000	     -8.60481910	     -3.96409827	    -16.80137725	     35.53812877	     90.00000001	      0.00000000	      0.00000000
